<?xml version="1.0" encoding="utf-8"?>
<!-- Generator: Adobe Illustrator 18.0.0, SVG Export Plug-In . SVG Version: 6.00 Build 0)  -->
<!DOCTYPE svg PUBLIC "-//W3C//DTD SVG 1.1//EN" "http://www.w3.org/Graphics/SVG/1.1/DTD/svg11.dtd">
<svg version="1.1" id="Layer_1" xmlns="http://www.w3.org/2000/svg" xmlns:xlink="http://www.w3.org/1999/xlink" x="0px" y="0px"
	 viewBox="0 0 378 72" enable-background="new 0 0 378 72" xml:space="preserve">
<line fill="none" stroke="#000000" stroke-width="2" x1="208.2" y1="24.4" x2="208.2" y2="65.2"/>
<path d="M65.2,32.3c-1.8,2.6-3.6,5.6-5.4,8.6C61.5,38,63.4,35,65.2,32.3z"/>
<path d="M52.8,54.3c-0.5,1.2-0.9,2.3-1.2,3.4C51.9,56.9,52.3,55.8,52.8,54.3z"/>
<path d="M53.3,63.4c0.4,0.1,0.8,0.2,1.3,0.2c4.1,0,9.4-6.2,9.4-13.4c0.7,0.5,1.3,1.2,1.6,1.9c-0.4-0.7-0.9-1.4-1.6-1.9
	c0,7.2-5.4,13.4-9.4,13.4c-1.5,0-2.6-0.7-3.1-1.3C51.9,62.8,52.4,63.1,53.3,63.4z"/>
<path d="M51.1,61.1C51.1,61.1,51.1,61.1,51.1,61.1c0-0.1,0-0.3,0-0.5C51.1,60.7,51.1,60.9,51.1,61.1z"/>
<path d="M51.6,38.7c0.4-0.5,0.8-0.9,1.1-1.3C52.3,37.8,52,38.2,51.6,38.7z"/>
<path d="M71,24.6C71,24.6,71,24.6,71,24.6c-2.7,0.3-5.8-0.1-8.4,0.4c-1.1,1.4-2.9,3.7-4.8,6c2-2.5,3.6-4.5,4.8-6
	C65.2,24.6,68.2,24.9,71,24.6z"/>
<path d="M29.4,59.7c0.1-0.1,0.2-0.1,0.4-0.2C29.7,59.6,29.6,59.7,29.4,59.7z"/>
<path d="M32.9,57.4c0.1-0.1,0.1-0.1,0.2-0.2C33.1,57.3,33,57.4,32.9,57.4z"/>
<path d="M14.4,39.8c1,1.9,3,3,6,3.7c0,0,0,0,0,0C17.4,42.8,15.4,41.7,14.4,39.8z"/>
<path d="M13.5,59.3c0,0.3,0,0.5,0.1,0.8C13.5,59.9,13.5,59.6,13.5,59.3c0-10.1,26.7-29.9,26.7-36.4c0-0.4-0.1-0.8-0.3-1.1
	c0.2,0.3,0.3,0.7,0.3,1.1C40.2,29.4,13.5,49.2,13.5,59.3z"/>
<path d="M44,47.2c0,0,0.6-0.7,1.6-1.7c-2.8,3-4.9,5-4.9,5c-2.7,2.8-5.2,5-7.5,6.7c0.5-0.4,1.1-0.8,1.6-1.2
	C37.9,53.5,41.4,49.8,44,47.2z"/>
<path d="M21.9,62.3c2.2,0,4.7-0.9,7.4-2.4C26.2,61.6,23.7,62.3,21.9,62.3c-1.1,0-1.7-0.2-2-0.7C20.2,62.2,20.8,62.3,21.9,62.3z"/>
<path d="M15.2,28.1c4.4-4.8,11.7-9.5,22-9.5c0.9,0,1.7,0.1,2.5,0.1c-0.8-0.1-1.7-0.2-2.5-0.2C26.8,18.6,19.6,23.2,15.2,28.1z"/>
<path d="M13.6,60.1c0-0.3-0.1-0.5-0.1-0.8c0-10.1,26.7-30,26.7-36.4c0-0.4-0.1-0.8-0.3-1.1c-0.7-1.3-2.8-1.7-5-1.7
	c-5.6,0-21.3,6.7-21.3,16.7c0,1.1,0.2,2.1,0.7,3c1,1.8,3,3,6.1,3.7c0,0,0,0,0,0c0,0,0,0,0,0c-3.5,2-8.8,0.4-10.1-2.7
	c-0.1-0.1-0.1-0.3-0.2-0.4v24h6.7C15.1,63.5,13.9,61.9,13.6,60.1z"/>
<path d="M37.1,18.5c0.8,0,1.7,0.1,2.5,0.2c0.7,0.1,1.4,0.2,2,0.4c0.5,0.1,1,0.3,1.5,0.5L33.9,9.1H10.2V36c0.1-0.3,0.2-0.6,0.3-0.9
	c0.8-2,2.4-4.5,4.7-7.1C19.6,23.2,26.8,18.6,37.1,18.5z"/>
<path d="M34.7,64.3v-6.3c-3.7,2.9-7.7,5.2-11.5,6.3H34.7z"/>
<path d="M77.8,9.1H54l-9.7,11.1c1,0.6,1.7,1.4,2.1,2.2c0.3,0.6,0.5,1.2,0.5,1.8c0,1.5-1.1,3.6-2.9,6.1c-1.9,2.6-4.5,5.6-7.3,8.7
	c-0.7,0.7-1.3,1.5-2,2.2c-7.2,7.9-15,16-15,19.4c0,0.4,0.1,0.8,0.2,1c0.3,0.5,1,0.7,2,0.7c1.8,0,4.3-0.7,7.4-2.4
	c0.1,0,0.1-0.1,0.2-0.1c0.1-0.1,0.2-0.1,0.4-0.2c1-0.6,2.1-1.3,3.1-2.1c0.1-0.1,0.1-0.1,0.2-0.2c0,0,0,0,0.1,0
	c2.2-1.7,4.7-3.9,7.5-6.7c0,0,2.1-2,4.9-5c1.7-1.8,4.3-4.7,6-6.8c0.4-0.4,0.7-0.9,1.1-1.3c0,0,0,0,0,0c1.8-2.3,3.5-4.5,5.1-6.4
	c1.8-2.3,3.7-4.6,4.8-6c2.6-0.4,5.7-0.1,8.4-0.4c0,0,0,0,0,0c0,0,0,0,0,0c-1.6,1.8-3.7,4.5-5.8,7.7c-1.8,2.7-3.7,5.7-5.4,8.6
	c-2.4,4.1-4.7,8.4-6.5,12.3c-0.2,0.4-0.3,0.8-0.5,1.1c-0.6,1.4-0.9,2.5-1.2,3.4c-0.3,1.1-0.5,2.1-0.5,2.9c0,0.2,0,0.3,0,0.5
	c0.1,0.5,0.2,0.8,0.4,1.1c0.5,0.7,1.5,1.3,3.1,1.3c4.1,0,9.4-6.2,9.4-13.4c0.7,0.5,1.3,1.2,1.6,1.9c0.4,0.7,0.5,1.5,0.5,2.3
	c0,4.4-3.6,8.3-8.1,10h19.7V9.1z"/>
<path fill="#FFFFFF" d="M66.2,54.4c0-0.8-0.2-1.6-0.5-2.3c-0.4-0.7-0.9-1.4-1.6-1.9c0,7.2-5.4,13.4-9.4,13.4c-0.5,0-0.9,0-1.3-0.2
	c-0.8-0.3-1.4-0.6-1.8-1.2c-0.2-0.3-0.3-0.6-0.4-1.1c0,0,0,0,0-0.1c0-0.1,0-0.3,0-0.5c0-0.8,0.2-1.8,0.5-2.9c0.3-1,0.7-2.2,1.2-3.4
	c0.1-0.4,0.3-0.7,0.5-1.1c1.8-3.9,4.1-8.2,6.5-12.3c1.8-3,3.7-6,5.4-8.6c2.2-3.2,4.2-5.9,5.8-7.7c0,0,0,0,0,0
	c-2.8,0.3-5.8,0-8.4,0.4c-1.1,1.4-2.8,3.5-4.8,6c-1.5,1.9-3.3,4.1-5.1,6.4c0,0,0,0,0,0c-0.3,0.4-0.7,0.8-1.1,1.3
	c-1.8,2.1-4.4,5-6,6.8c-0.9,1-1.6,1.7-1.6,1.7c-2.6,2.6-6.1,6.3-9.2,8.8c-0.5,0.4-1.1,0.8-1.6,1.2c0,0,0,0-0.1,0
	c-0.1,0.1-0.2,0.1-0.2,0.2c-1.1,0.8-2.1,1.5-3.1,2.1c-0.1,0.1-0.2,0.1-0.4,0.2c-0.1,0-0.1,0.1-0.2,0.1c-2.6,1.5-5.2,2.4-7.4,2.4
	c-1.1,0-1.7-0.1-2-0.7c-0.1-0.2-0.2-0.6-0.2-1c0-3.4,7.8-11.5,15-19.4c0.7-0.7,1.3-1.5,2-2.2c2.8-3.1,5.4-6.1,7.3-8.7
	c1.8-2.5,2.9-4.6,2.9-6.1c0-0.6-0.1-1.2-0.5-1.8c-0.4-0.8-1.1-1.5-2.1-2.2c-0.4-0.2-0.8-0.4-1.3-0.6c-0.4-0.2-0.9-0.3-1.5-0.5
	c-0.6-0.2-1.3-0.3-2-0.4c-0.8-0.1-1.6-0.1-2.5-0.1c-10.3,0-17.5,4.7-22,9.5c-2.3,2.5-3.9,5.1-4.7,7.1c-0.1,0.3-0.2,0.6-0.3,0.9
	c-0.3,0.9-0.4,1.6-0.4,2.1c0,0.8,0.3,1.8,0.6,2.5c0,0.1,0,0.1,0.1,0.2c1.3,3.1,6.6,4.7,10.1,2.7c0,0,0,0,0,0c-3-0.7-5.1-1.9-6-3.7
	c-0.4-0.8-0.7-1.8-0.7-3c0-10,15.7-16.7,21.3-16.7c2.2,0,4.3,0.4,5,1.7c0.2,0.3,0.3,0.7,0.3,1.1c0,6.5-26.7,26.3-26.7,36.4
	c0,0.3,0,0.5,0.1,0.8c0.3,1.8,1.5,3.4,3.3,4.2c0,0,0,0,0,0c0.7,0.3,1.5,0.5,2.3,0.5c1.3,0,2.6-0.2,3.9-0.5c0,0,0,0,0.1,0
	c3.8-1,7.7-3.4,11.5-6.3c0,0,0,0,0,0c7.1-5.5,13.6-13.1,17.2-17.5c-4.7,6.8-8.6,14.5-8.6,17.3c0,5.7,7.6,7.4,9.9,7.4
	c1.7,0,3.3-0.3,4.8-0.9c0,0,0,0,0,0C62.6,62.6,66.2,58.8,66.2,54.4z"/>
<g>
	<path d="M112.1,37.5c0,5.8-3.8,8.4-9.3,8.4c-5.5,0-9.3-2.6-9.3-8.4V24.4h5.6v12.2c0,2.8,0.8,5.2,3.6,5.2c2.9,0,3.6-2.4,3.6-5.2
		V24.4h5.6V37.5z"/>
	<path d="M116.2,24.4h8.9l4.5,14.1h0.1l4.7-14.1h8.6v21.2h-5.5l0.1-16.2h-0.1L132,45.6h-5.2l-5.2-16.2h-0.1l0.1,16.2h-5.5V24.4z"/>
	<path d="M157.3,45.6c0-0.8-0.1-1.7-0.1-2.5h-0.1c-1.2,2-2.8,2.8-5,2.8c-3.1,0-5.9-1.5-5.9-5c0-4.8,5.2-5.4,8.2-5.4
		c0.9,0,1.8,0.1,2.5,0.2c0-2.2-1.6-2.7-3.6-2.7c-1.8,0-3.5,0.3-5,1.2l-0.1-3.7c1.9-0.8,4-1.1,6.3-1.1c4,0,7.5,1.7,7.5,6.5v5.9
		c0,1.2,0.1,2.5,0.3,3.7H157.3z M153.6,42.3c2.1,0,3.4-1.9,3.4-3.7c-0.7,0-1.5-0.1-2.3-0.1c-1.8,0-3.3,0.6-3.3,2.1
		C151.3,41.7,152.3,42.3,153.6,42.3z"/>
	<path d="M165.8,41.2c1.3,0.5,3.2,1.1,5.1,1.1c1.1,0,2.2-0.2,2.2-1.3c0-2.7-7.8-0.8-7.8-6.5c0-3.6,3.6-5.1,6.7-5.1
		c1.9,0,3.8,0.2,5.5,0.9l-0.4,3.8c-1.2-0.7-2.9-1.1-4.2-1.1c-1.2,0-2.5,0.2-2.5,1.1c0,2.5,8.1,0.5,8.1,6.5c0,4.2-3.8,5.3-7.4,5.3
		c-2.5,0-4.1-0.2-5.7-0.8L165.8,41.2z"/>
	<path d="M181.6,41.2c1.3,0.5,3.2,1.1,5.1,1.1c1.1,0,2.2-0.2,2.2-1.3c0-2.7-7.8-0.8-7.8-6.5c0-3.6,3.6-5.1,6.7-5.1
		c1.9,0,3.8,0.2,5.5,0.9l-0.4,3.8c-1.2-0.7-2.9-1.1-4.2-1.1c-1.2,0-2.5,0.2-2.5,1.1c0,2.5,8.1,0.5,8.1,6.5c0,4.2-3.8,5.3-7.4,5.3
		c-2.5,0-4.1-0.2-5.7-0.8L181.6,41.2z"/>
	<path d="M222.9,43h5.2c7.6,0,10.6,4.4,10.6,10.5c0,7.7-5.1,10.6-12.1,10.6h-3.7V43z M225,62.4h1.7c6,0,9.9-2.4,9.9-8.9
		c0-6.5-3.8-8.6-8.6-8.6H225V62.4z"/>
	<path d="M252,61.7L252,61.7c-0.9,1.8-3.1,2.8-5,2.8c-4.4,0-5.1-3-5.1-4.4c0-5.2,5.5-5.4,9.5-5.4h0.4V54c0-2.6-0.9-4-3.5-4
		c-1.6,0-3.1,0.4-4.5,1.3v-1.8c1.2-0.6,3.2-1.1,4.5-1.1c3.8,0,5.4,1.7,5.4,5.8V61c0,1.2,0,2.2,0.2,3.2H252V61.7z M251.8,56.4h-0.5
		c-3.3,0-7.2,0.3-7.2,3.7c0,2,1.5,2.8,3.2,2.8c4.5,0,4.6-3.9,4.6-5.6V56.4z"/>
	<path d="M259,52.2c0-1.7,0-2.3-0.1-3.5h1.9v3h0.1c0.7-1.7,2-3.3,4-3.3c0.5,0,1,0.1,1.3,0.2v2c-0.4-0.1-0.9-0.2-1.4-0.2
		c-3,0-3.9,3.4-3.9,6.2v7.6H259V52.2z"/>
	<path d="M278.1,50.4h-3.5v10c0,1.4,0.5,2.5,2.1,2.5c0.7,0,1.2-0.2,1.8-0.4l0.1,1.6c-0.5,0.2-1.4,0.4-2.3,0.4
		c-3.4,0-3.5-2.3-3.5-5.2v-9h-3v-1.6h3V45l1.9-0.7v4.4h3.5V50.4z"/>
	<path d="M300.9,64.2V53.9c0-2.2-0.8-3.9-3.3-3.9c-2.1,0-4.2,1.8-4.2,5.6v8.5h-1.9V53.9c0-2.2-0.8-3.9-3.3-3.9
		c-2.1,0-4.2,1.8-4.2,5.6v8.5h-1.9V52.4c0-1.2,0-2.4-0.1-3.6h1.8v2.6l0.1,0c0.6-1.1,1.5-3,4.8-3c1.4,0,3.6,0.6,4.1,3.3h0.1
		c0.7-1.8,2.5-3.3,4.9-3.3c3.1,0,4.9,2.2,4.9,5.2v10.6H300.9z"/>
	<path d="M314.3,48.4c5,0,7.2,3.9,7.2,8.1c0,4.2-2.2,8.1-7.2,8.1c-5,0-7.2-3.9-7.2-8.1C307.1,52.3,309.3,48.4,314.3,48.4z
		 M314.3,62.9c3.3,0,5.1-2.9,5.1-6.5c0-3.6-1.8-6.5-5.1-6.5c-3.3,0-5.1,2.9-5.1,6.5C309.2,60,311,62.9,314.3,62.9z"/>
	<path d="M337.9,60.6c0,1.2,0,2.4,0.1,3.6h-1.8v-2.8h-0.1c-0.6,1.4-1.8,3.1-5,3.1c-3.8,0-5.3-2.5-5.3-5.9v-9.9h1.9v9.4
		c0,2.9,1,4.8,3.7,4.8c3.5,0,4.6-3.1,4.6-5.6v-8.5h1.9V60.6z"/>
	<path d="M350.2,50.4h-3.5v10c0,1.4,0.5,2.5,2.1,2.5c0.7,0,1.2-0.2,1.8-0.4l0.1,1.6c-0.5,0.2-1.4,0.4-2.3,0.4
		c-3.4,0-3.5-2.3-3.5-5.2v-9h-3v-1.6h3V45l1.9-0.7v4.4h3.5V50.4z"/>
	<path d="M354.3,41.5h1.9v9.9h0.1c0.8-1.7,2.5-3,4.8-3c4.2,0,5.3,2.8,5.3,6.6v9.2h-1.9V55c0-2.7-0.5-5-3.7-5c-3.4,0-4.6,3.2-4.6,5.9
		v8.3h-1.9V41.5z"/>
</g>
</svg>
